<svg width="371" height="376" viewBox="0 0 371 376" fill="none" xmlns="http://www.w3.org/2000/svg">
<path fill-rule="evenodd" clip-rule="evenodd" d="M146.902 30.1994C147.502 30.8634 148.056 31.5514 148.666 32.1994C150.136 33.7554 151.718 35.1874 153.152 36.7574C154.86 38.6316 156.451 40.6102 157.914 42.6814C159.942 45.1814 162.514 47.6474 165.742 52.1254C166.742 53.5074 167.604 54.9734 168.572 56.3934C168.742 56.6214 168.995 56.7736 169.276 56.8176C169.556 56.8616 169.843 56.7938 170.075 56.629C170.307 56.464 170.465 56.2148 170.515 55.935C170.565 55.6552 170.504 55.3666 170.344 55.1314C167.932 51.8954 169.544 54.4574 164.332 47.1934C157.732 37.9934 162.686 44.4574 154.396 34.9794C153.286 33.7114 152.256 32.3794 151.084 31.1414C150.254 30.2714 149.34 29.4814 148.47 28.6374C148.369 28.5286 148.246 28.4412 148.111 28.3806C147.975 28.3198 147.828 28.2872 147.679 28.2844C147.531 28.2816 147.383 28.3088 147.245 28.3644C147.107 28.4198 146.982 28.5026 146.876 28.6078C146.771 28.7128 146.688 28.838 146.632 28.9758C146.576 29.1136 146.549 29.2614 146.551 29.41C146.553 29.5588 146.586 29.7054 146.646 29.8414C146.706 29.9774 146.793 30.0978 146.902 30.1994Z" fill="#4B8FCE"/>
<path fill-rule="evenodd" clip-rule="evenodd" d="M176.964 13.944C177.042 15.324 177.036 16.706 177.138 18.084C177.28 20.014 177.576 21.926 177.738 23.854C178.074 27.632 178.158 31.622 178.338 33.624C178.576 36.212 179.654 42.904 180.098 47.726C180.268 49.564 180.32 51.408 180.498 53.242C180.531 53.5286 180.676 53.7906 180.902 53.97C181.128 54.1494 181.416 54.2318 181.703 54.199C181.99 54.166 182.252 54.0206 182.431 53.7946C182.611 53.5686 182.693 53.2806 182.66 52.994C182.416 51.172 182.06 49.368 181.842 47.54C181.014 40.702 181.222 36.83 180.818 32.614C180.698 31.358 180.44 30.122 180.296 28.866C179.544 22.322 179.846 20.902 179.512 16.796C179.432 15.796 179.258 14.796 179.164 13.796C179.118 13.525 178.974 13.2806 178.758 13.1104C178.542 12.9402 178.271 12.8562 177.997 12.8746C177.723 12.893 177.466 13.0126 177.275 13.2102C177.084 13.4078 176.973 13.6694 176.964 13.944Z" fill="#4B8FCE"/>
<path fill-rule="evenodd" clip-rule="evenodd" d="M16.172 295.518C17.292 295.002 18.45 294.582 19.572 294.082C22.278 292.882 24.924 291.554 27.67 290.454C30.7064 289.234 33.807 288.182 36.958 287.3C43.39 285.16 43.358 284.752 51.714 282.3C56.036 281.034 56.412 281.116 59.822 280.26C59.9598 280.222 60.0888 280.158 60.202 280.072C60.315 279.984 60.4098 279.876 60.4808 279.752C60.552 279.628 60.598 279.492 60.6164 279.35C60.6348 279.21 60.6252 279.066 60.588 278.928C60.5508 278.79 60.487 278.66 60.3998 278.548C60.3128 278.434 60.2044 278.34 60.0806 278.268C59.957 278.198 59.8204 278.152 59.679 278.134C59.5376 278.114 59.3938 278.124 59.256 278.162C54.856 279.424 57.056 278.978 50.326 280.84C33.978 285.36 39.816 283.462 26.026 288.824C22.29 290.074 18.6692 291.646 15.204 293.522C14.9394 293.65 14.7364 293.878 14.64 294.156C14.5438 294.434 14.5616 294.738 14.69 295.004C14.8184 295.268 15.0466 295.472 15.3246 295.568C15.6026 295.664 15.9074 295.646 16.172 295.518Z" fill="#4B8FCE"/>
<path fill-rule="evenodd" clip-rule="evenodd" d="M50.148 330.8C50.57 329.868 51.094 328.964 51.548 328C52.598 325.8 53.568 323.474 54.778 321.2C56.0778 318.742 57.5314 316.368 59.13 314.092C61.84 309.692 61.914 308.8 65.968 302.758C68.122 299.558 68.406 299.45 70.198 297.056C70.3534 296.82 70.4118 296.534 70.3606 296.258C70.3096 295.98 70.1532 295.734 69.9242 295.57C69.6952 295.406 69.4116 295.338 69.1328 295.378C68.8542 295.42 68.6022 295.566 68.43 295.79C66.43 298.684 67.568 297.35 64.046 302.41C55.284 314.996 58.778 309.53 52.538 320.89C50.7552 323.74 49.27 326.768 48.106 329.922C47.9896 330.192 47.9854 330.498 48.0946 330.772C48.2038 331.046 48.4172 331.266 48.688 331.382C48.9588 331.498 49.2648 331.502 49.5386 331.394C49.8124 331.284 50.0316 331.07 50.148 330.8Z" fill="#4B8FCE"/>
<path fill-rule="evenodd" clip-rule="evenodd" d="M274.248 235.458C276.754 236.72 279.338 237.824 281.984 238.762C284.16 239.66 286.286 240.672 288.354 241.798C293.624 243.664 298.78 245.836 303.798 248.3C303.93 248.358 304.07 248.388 304.214 248.39C304.356 248.392 304.5 248.366 304.632 248.314C304.766 248.262 304.886 248.184 304.99 248.084C305.092 247.984 305.174 247.866 305.232 247.734C305.288 247.604 305.32 247.462 305.322 247.318C305.324 247.176 305.298 247.034 305.246 246.9C305.194 246.766 305.116 246.646 305.016 246.542C304.916 246.44 304.798 246.358 304.666 246.3C299.444 244.304 294.342 242.008 289.384 239.426C288.424 239.026 287.42 238.748 286.47 238.376C278.422 235.228 274.55 231.976 273.67 233.996C273.612 234.13 273.58 234.274 273.578 234.42C273.574 234.566 273.602 234.712 273.654 234.848C273.708 234.984 273.788 235.108 273.89 235.212C273.992 235.318 274.114 235.4 274.248 235.458Z" fill="#4B8FCE"/>
<path fill-rule="evenodd" clip-rule="evenodd" d="M265.832 247.016C267.232 249.968 269.334 252.816 271.51 256.38C275.67 263.18 274.31 261.468 276.022 264.38C278.46 268.52 283.314 274.916 287.402 282.98C287.476 283.102 287.572 283.21 287.688 283.294C287.802 283.38 287.932 283.442 288.072 283.476C288.21 283.51 288.354 283.518 288.496 283.496C288.636 283.476 288.772 283.426 288.894 283.354C289.018 283.28 289.124 283.182 289.21 283.068C289.294 282.954 289.356 282.822 289.39 282.684C289.426 282.546 289.432 282.402 289.412 282.26C289.39 282.118 289.342 281.982 289.268 281.86C284.14 274.51 280.668 267.04 278.234 263.06C277.528 261.9 276.708 260.826 275.994 259.708C269.354 249.308 268.146 244.348 266.214 245.508C265.964 245.658 265.784 245.902 265.714 246.184C265.642 246.466 265.684 246.766 265.832 247.016Z" fill="#4B8FCE"/>
<path d="M79.522 199.724C88.336 197.294 88.866 184.428 96.512 184.402C97.7722 184.476 98.9978 184.843 100.092 185.472C101.186 186.102 102.119 186.978 102.816 188.03C107.316 193.82 110.908 199.204 115.036 201.988C116.507 203.002 118.174 203.696 119.93 204.028C119.295 203.238 118.748 202.38 118.298 201.472C117.546 201.166 116.829 200.784 116.156 200.33C112.332 197.75 108.798 192.464 104.394 186.802C99.648 180.698 93.05 181.352 89.342 186.26C86.222 190.388 83.886 196.446 78.992 197.796C75.6322 198.924 71.9672 198.714 68.758 197.21C77.636 198.078 81.45 192.052 85.996 184.376C88.666 179.862 92.174 175.194 97.348 175.918C105.362 177.042 110.972 186.718 117.258 193.572C118.224 189.56 120.42 185.949 123.538 183.246C128.75 178.282 135.978 174.534 140.094 171.926C145.058 168.592 150.616 166.241 156.466 165C155.635 162.739 154.009 160.858 151.892 159.71C146.672 156.636 139.794 156.756 135.014 152.416C131.122 148.878 130.55 142.552 131.852 137.952C134.172 136.197 136.927 135.108 139.82 134.805C142.713 134.501 145.634 134.993 148.268 136.228C154.746 139.054 158.51 145.816 160.842 148.766C162.633 150.675 164.982 151.969 167.553 152.461C170.124 152.954 172.784 152.62 175.154 151.508C176.017 151.022 176.853 150.488 177.656 149.908C177.256 149.42 176.861 148.916 176.472 148.396C175.761 148.878 175.022 149.318 174.258 149.712C172.299 150.618 170.106 150.893 167.984 150.499C165.861 150.105 163.913 149.061 162.41 147.512C159.948 144.41 156.156 137.476 149.068 134.382C146.567 133.191 143.819 132.608 141.049 132.682C138.279 132.756 135.567 133.483 133.132 134.806C134.1 133.024 135.545 131.546 137.305 130.538C139.065 129.53 141.071 129.032 143.098 129.1C147.986 128.905 152.784 130.453 156.636 133.468C162.712 138.278 167.302 147.246 175.696 147.346C171.378 141.42 167.47 133.868 168.51 127.166C170.07 117.106 179.604 113.4 189.032 108.166C189.962 107.682 190.78 107.007 191.432 106.184C178.614 91.524 159.988 73.038 151.698 64.332C148.743 61.071 145.375 58.2094 141.68 55.82C130.114 48.696 124.512 51.064 115.512 57.792C114.182 58.792 112.818 59.86 111.444 60.992C112.217 62.513 112.605 64.2002 112.576 65.906C112.352 67.3544 111.86 68.7484 111.124 70.016C112.056 70.938 113.924 72.79 114.456 73.296C120.93 79.508 126.856 91.634 127.04 96.646C127.1 99.564 125.24 100.3 125.126 103.556C125.074 105.114 126.008 106.32 125.78 108.302C125.218 113.128 123.29 116.052 121.472 120.702C120.954 122.601 119.871 124.299 118.366 125.568C116.268 126.902 113.932 126.316 111.53 125.642C109.922 125.063 108.194 124.898 106.506 125.162C105.45 125.291 104.383 125.306 103.324 125.206C99.9556 124.532 96.8278 122.972 94.262 120.688C82.528 111.962 82.476 109.676 70.324 100.256C67.098 103.598 63.992 106.938 61.304 110.056C54.484 117.948 45.158 130.532 53.366 136.968C58.014 140.614 64.108 145.608 67.24 148.544C70.0096 151.372 71.7552 155.044 72.2 158.978C67.262 166.456 60.696 167.044 56.622 173.66C54.9236 176.38 54.2904 179.631 54.844 182.79H54.8C56.6 194.4 68.2 202.852 79.522 199.724ZM68.6 147.084C65.422 144.104 59.276 139.066 54.6 135.392C51.298 132.804 51.254 130.1 53.06 126.506C60.78 137.506 79.348 143.384 73.766 156.15C72.848 152.736 71.0692 149.614 68.6 147.084Z" fill="#4B8FCE"/>
<path d="M161.644 288.458C160.226 286.048 159.749 283.198 160.306 280.458C160.814 279.082 161.573 277.814 162.544 276.718C161.814 275.628 160.344 273.444 159.928 272.844C155.778 266.866 151.498 254.51 152.2 247.54C152.49 244.93 154.702 244.23 155.456 241.07C155.814 239.556 155.138 238.182 155.752 236.288C157.264 231.656 159.736 229.174 162.434 224.972C163.317 223.216 164.712 221.768 166.434 220.82C169.666 219.58 172.724 222.136 175.104 223.02C176.856 223.664 179.064 223.476 181.104 224.16C185.124 225.506 187.558 228.76 190.262 231.67C191.974 233.512 193.582 235.448 195.078 237.47C194.554 235.782 194.476 233.986 194.85 232.26C195.226 230.532 196.04 228.932 197.216 227.612C197.17 231.146 198.032 234.634 199.72 237.74C201.968 241.47 206.52 247.988 210.026 252.796C210.678 253.528 211.138 254.41 211.364 255.364C211.59 256.318 211.576 257.312 211.32 258.26C211.746 258.736 212.186 259.228 212.64 259.732C213.208 258.412 213.416 256.964 213.24 255.538C213.064 254.112 212.512 252.758 211.64 251.616C208.156 246.844 203.64 240.384 201.428 236.708C199.528 233.23 198.844 229.218 199.482 225.308C206.264 219.452 212.742 220.67 218.462 215.408C220.692 213.384 222.146 210.646 222.572 207.666C218.992 201.732 215.742 195.606 212.834 189.316C204.726 186.338 199.476 191.054 193.11 197.116C189.31 200.736 184.668 204.276 179.886 202.174C168.388 197.116 168.064 173.8 156.262 170.042C158.41 169.371 160.709 169.349 162.87 169.977C165.031 170.605 166.959 171.856 168.414 173.574C171.394 177.094 173.36 183.14 176.06 189.786C178.972 196.948 185.498 198.112 190.4 194.386C194.524 191.26 198.416 186.064 203.494 186.094C206.834 185.939 210.118 186.994 212.742 189.066C212.702 188.96 212.668 188.866 212.64 188.774C212.384 187.97 212.204 187.144 212.1 186.308C209.46 184.87 206.506 184.11 203.5 184.094C194.358 184.04 190.354 196.278 182.988 194.228C181.796 193.814 180.716 193.128 179.834 192.226C178.952 191.324 178.292 190.228 177.906 189.028C175.148 182.228 173.152 176.078 169.936 172.278C162.8 163.852 151.006 168.526 141.684 174.444C137.638 177.012 130.508 180.722 125.592 185.404C119.992 190.746 117.692 197.446 122.982 202.966C127.172 207.34 133.822 209.094 137.246 214.566C140.03 219.026 138.864 225.27 136.36 229.344C133.651 230.402 130.704 230.7 127.837 230.206C124.971 229.714 122.293 228.446 120.094 226.544C114.626 222.064 112.84 214.544 111.398 211.062C110.193 208.738 108.283 206.856 105.942 205.684C103.602 204.512 100.95 204.11 98.368 204.538C95.038 205.174 73.794 213.6 68.234 217.306C65.514 219.118 62.334 221.87 63.034 225.074C66.022 238.884 89.204 279.492 97.284 294.79C99.2414 298.732 101.704 302.404 104.61 305.712C113.81 315.712 119.842 314.952 130.33 310.912C140.847 306.494 151.089 301.448 161 295.8L165.952 293.136C164.18 291.922 162.707 290.322 161.644 288.458ZM123.154 234.816C118.397 233.676 114.2 230.882 111.31 226.936C106.31 220.032 104.418 208.778 94.146 207.936C95.6448 207.35 97.1868 206.882 98.758 206.536C100.888 206.196 103.072 206.528 105.006 207.482C106.941 208.436 108.531 209.968 109.558 211.866C111.084 215.52 112.852 223.224 118.834 228.126C120.918 229.95 123.405 231.256 126.09 231.938C128.775 232.62 131.584 232.656 134.286 232.046C132.869 233.494 131.078 234.52 129.113 235.008C127.147 235.498 125.084 235.43 123.154 234.816Z" fill="#4B8FCE"/>
<path d="M303.904 122.276C303.552 122.579 303.184 122.864 302.802 123.13C300.352 124.914 297.328 125.728 294.312 125.414C292.978 125.12 291.71 124.577 290.578 123.814C289.52 124.692 288.044 125.918 287.578 126.31C281.838 131.226 269.978 136.71 262.656 136.71C259.728 136.71 258.696 134.51 255.74 134.11C253.34 133.792 252.31 136.37 242.066 130.48C237.944 128.114 235.066 127.196 233.782 124.648C233.314 123.418 233.12 122.101 233.214 120.788C233.308 119.476 233.686 118.199 234.322 117.048C235.004 115.62 235.31 114.041 235.208 112.462C235.182 111.328 235.278 110.195 235.494 109.082C236.512 105.633 238.442 102.523 241.082 100.082C253.118 86.8196 252.21 91.1356 267.082 74.4996C261.006 68.8496 253.914 64.7376 248.522 69.7796C244.206 73.8176 238.338 79.0716 234.956 81.7196C231.736 84.0262 227.84 85.1906 223.882 85.0276C217.25 79.0056 217.682 72.4276 211.762 67.3856C209.334 65.2906 206.216 64.1674 203.01 64.2316V64.1856C191.272 64.1856 181.142 74.3556 182.496 86.0156C183.548 95.0976 196.182 97.5916 195.038 105.152C194.772 106.385 194.22 107.54 193.43 108.525C192.64 109.51 191.632 110.297 190.486 110.826C184.074 114.386 178.204 117.112 174.822 120.764C167.322 128.866 173.386 140.008 180.388 148.546C183.428 152.252 187.97 158.882 193.212 163.196C199.194 168.116 206.122 169.58 210.962 163.662C214.798 158.974 215.734 152.16 220.762 148.1C224.854 144.798 231.192 145.2 235.54 147.192C236.918 149.753 237.57 152.642 237.428 155.547C237.284 158.453 236.35 161.264 234.728 163.678C230.942 169.646 223.684 172.332 220.412 174.182C218.25 175.659 216.612 177.782 215.732 180.247C214.852 182.713 214.774 185.393 215.51 187.906C216.544 191.134 227.476 211.204 231.83 216.276C233.956 218.756 237.072 221.578 240.17 220.504C253.516 215.87 291.022 187.946 305.232 178.076C308.91 175.654 312.258 172.763 315.188 169.476C324 159.138 322.518 153.238 317.248 143.314C313.208 136.05 308.754 129.026 303.904 122.276ZM203.304 107.25C199.674 119.276 176.568 122.416 174.266 134.586C173.341 132.534 173.04 130.255 173.402 128.034C173.763 125.813 174.772 123.747 176.3 122.096C179.434 118.712 185.2 116.03 191.47 112.546C198.228 108.79 198.594 102.17 194.31 97.7456C190.71 94.0296 185.08 90.7956 184.496 85.7456C183.897 82.2532 184.666 78.6644 186.642 75.7236C184.424 84.3636 189.796 89.0556 196.684 94.7236C200.728 98.0656 204.8 102.248 203.296 107.25H203.304ZM226.45 86.9756C229.964 86.5928 233.322 85.3154 236.202 83.2656C239.632 80.5816 245.552 75.2796 249.9 71.2136C252.964 68.3476 255.642 68.7176 258.916 71.0536C246.864 76.9996 238.2 94.4456 226.442 86.9756H226.45ZM242.558 159.63C241.998 164.491 239.73 168.995 236.158 172.34C229.908 178.14 218.958 181.378 219.358 191.676C218.594 190.262 217.942 188.79 217.406 187.276C216.81 185.201 216.872 182.992 217.586 180.955C218.298 178.918 219.628 177.152 221.388 175.904C224.832 173.946 232.264 171.26 236.408 164.73C237.968 162.44 238.964 159.813 239.316 157.065C239.668 154.317 239.364 151.524 238.43 148.916C240.042 150.144 241.282 151.796 242.01 153.688C242.738 155.58 242.924 157.637 242.55 159.63H242.558Z" fill="#4B8FCE"/>
<path fill-rule="evenodd" clip-rule="evenodd" d="M293.65 111.876C289.766 120.02 275.158 130.98 263.586 132.168C263.3 132.203 263.04 132.351 262.864 132.579C262.686 132.806 262.608 133.095 262.642 133.381C262.678 133.667 262.826 133.926 263.054 134.103C263.282 134.28 263.57 134.359 263.856 134.324C273.37 132.611 282.172 128.144 289.172 121.478C293.738 117.158 294.536 115.478 295.672 112.782C295.786 112.514 295.792 112.213 295.686 111.942C295.58 111.671 295.372 111.453 295.106 111.334C294.842 111.215 294.54 111.205 294.268 111.307C293.994 111.408 293.774 111.612 293.65 111.876Z" fill="#191919"/>
<path fill-rule="evenodd" clip-rule="evenodd" d="M278.082 112.931C270.74 122.249 257.898 128.517 249.882 129.005C249.74 129.017 249.602 129.057 249.474 129.123C249.348 129.188 249.236 129.278 249.142 129.387C249.05 129.496 248.982 129.622 248.938 129.758C248.894 129.894 248.878 130.037 248.89 130.179C248.902 130.322 248.942 130.46 249.008 130.587C249.072 130.714 249.162 130.826 249.272 130.918C249.38 131.011 249.506 131.08 249.642 131.124C249.778 131.167 249.922 131.183 250.064 131.171C261.478 129.961 273.914 122.987 279.902 114.211C280.072 113.971 280.14 113.674 280.09 113.384C280.04 113.094 279.878 112.836 279.638 112.666C279.398 112.497 279.1 112.429 278.81 112.479C278.52 112.529 278.262 112.691 278.092 112.931H278.082Z" fill="#191919"/>
<path fill-rule="evenodd" clip-rule="evenodd" d="M271.2 104.672C262.69 112 250.122 120 239.024 121.726C238.748 121.779 238.502 121.938 238.34 122.17C238.178 122.401 238.112 122.685 238.156 122.964C238.2 123.243 238.35 123.493 238.576 123.663C238.802 123.833 239.084 123.908 239.364 123.874C251.888 121.235 263.426 115.154 272.682 106.316C272.884 106.115 273 105.845 273.008 105.56C273.016 105.276 272.914 104.999 272.724 104.788C272.534 104.577 272.268 104.447 271.986 104.425C271.702 104.403 271.42 104.492 271.2 104.672Z" fill="#191919"/>
<path fill-rule="evenodd" clip-rule="evenodd" d="M262.952 96.4778C255.886 103.214 250.038 106.256 240.712 109.854C240.46 109.98 240.266 110.199 240.172 110.465C240.078 110.731 240.09 111.023 240.208 111.28C240.324 111.537 240.538 111.738 240.8 111.841C241.064 111.944 241.356 111.94 241.616 111.832C249.016 108.632 257.834 105.662 264.584 97.9758C264.774 97.758 264.872 97.4746 264.856 97.186C264.84 96.8976 264.712 96.6268 264.498 96.4314C264.286 96.236 264.004 96.1314 263.716 96.1402C263.426 96.1488 263.152 96.27 262.952 96.4778Z" fill="#191919"/>
<path fill-rule="evenodd" clip-rule="evenodd" d="M370.506 53.6676C359.82 39.6516 348.2 24.3996 336.718 8.99959C336.642 8.89859 336.546 8.81419 336.436 8.75179C336.326 8.68919 336.204 8.64999 336.078 8.63619C335.952 8.62259 335.826 8.63479 335.704 8.67219C335.584 8.70959 335.472 8.77139 335.376 8.85359C325.45 17.2756 286.456 51.1436 285.462 52.0396C285.06 52.3978 284.74 52.8402 284.526 53.3356C284.314 53.8308 284.212 54.3668 284.23 54.9058C284.246 55.4446 284.382 55.9732 284.626 56.454C284.87 56.9346 285.218 57.3558 285.642 57.6876C283.442 59.9316 281.706 62.0876 278.482 65.8416C274.308 70.8738 269.88 75.6894 265.214 80.2696C258.888 87.4364 252.006 94.0942 244.636 100.182C244.408 100.367 244.262 100.636 244.232 100.929C244.202 101.222 244.288 101.515 244.474 101.744C244.66 101.972 244.928 102.118 245.222 102.148C245.514 102.178 245.808 102.091 246.036 101.906C249.094 99.605 251.964 97.0636 254.616 94.3056C268.436 80.7056 267.744 81.5616 273.142 75.2016C277.342 70.2316 281.4 64.4256 287.272 59.0916C289.104 60.6916 306.694 76.2616 311.022 80.1276C308.568 91.1276 310.176 91.9476 307.022 105.256C305.786 110.482 303.76 118.314 298.834 120.508C296.234 121.668 294.11 120.45 292.28 118.276C292.092 118.058 291.824 117.923 291.536 117.903C291.25 117.882 290.966 117.976 290.748 118.165C290.53 118.353 290.394 118.621 290.374 118.908C290.354 119.196 290.448 119.48 290.636 119.698C295.992 125.522 302.396 122.374 305.89 115.444C309.946 107.644 309.912 103.624 311.218 93.6696C311.746 89.6696 312.352 86.9376 313.018 81.9176L313.668 82.4996C314.298 83.0584 315.084 83.41 315.92 83.5066C316.758 83.6032 317.604 83.4402 318.344 83.0396C323.378 80.3596 364.892 58.1156 370.144 55.2996C370.284 55.2252 370.408 55.1212 370.504 54.9946C370.6 54.8682 370.668 54.7224 370.702 54.5672C370.736 54.412 370.736 54.2512 370.702 54.0958C370.668 53.9406 370.602 53.7944 370.506 53.6676Z" fill="#191919"/>
<path fill-rule="evenodd" clip-rule="evenodd" d="M228.48 373.948C220.722 353.314 216.404 344.642 201.156 307.764C201.008 307.396 200.978 306.99 201.07 306.604C201.16 306.216 201.368 305.868 201.666 305.604C230.368 279.872 229.066 279.604 230.466 279.728C230.662 279.744 230.852 279.8 231.024 279.894C231.196 279.988 231.346 280.116 231.466 280.272C270.466 332.25 267.956 335.222 270.224 333.79C270.344 333.714 270.45 333.616 270.532 333.498C270.614 333.382 270.672 333.25 270.704 333.112C270.736 332.972 270.74 332.828 270.714 332.688C270.69 332.548 270.638 332.412 270.562 332.292C263.488 321.208 234.562 280.926 233.162 279.016C232.87 278.616 232.496 278.282 232.064 278.036C231.634 277.79 231.158 277.636 230.664 277.586C230.17 277.536 229.672 277.59 229.202 277.746C228.73 277.9 228.298 278.152 227.93 278.486C206.428 297.866 212.392 292.392 200.13 303.922C199.502 304.508 199.07 305.272 198.896 306.112C198.72 306.952 198.808 307.826 199.15 308.614C200.964 312.814 224.888 370.772 226.416 374.738C226.522 375.012 226.732 375.234 227.002 375.352C227.272 375.472 227.576 375.48 227.85 375.374C228.126 375.268 228.346 375.056 228.466 374.788C228.584 374.518 228.592 374.212 228.486 373.938L228.48 373.948Z" fill="#4B8FCE"/>
<path fill-rule="evenodd" clip-rule="evenodd" d="M203.092 301.682C192.06 297.992 191.222 299.542 178.156 295.008C173.06 293.232 165.472 290.408 163.77 285.266C163.058 283.13 163.658 280.914 166.616 278.956C168.069 280.586 169.82 281.922 171.774 282.896C172.027 283.03 172.322 283.06 172.598 282.982C172.873 282.902 173.107 282.72 173.25 282.472C173.394 282.224 173.436 281.93 173.368 281.652C173.299 281.374 173.126 281.134 172.884 280.98C170.117 279.05 167.609 276.774 165.418 274.208C161.05 268.716 155.666 257.468 155.618 248.868C155.611 248.58 155.489 248.306 155.28 248.106C155.07 247.908 154.791 247.8 154.502 247.808C154.213 247.816 153.94 247.938 153.741 248.146C153.542 248.356 153.435 248.636 153.442 248.924C154.288 259.384 158.391 269.318 165.176 277.324C164.093 278.034 163.207 279.006 162.602 280.152C161.998 281.298 161.693 282.578 161.718 283.872C162.052 290.576 171.856 295.684 178.014 297.672C179.506 298.152 185.494 299.494 189.27 300.394C192.172 301.086 195.218 301.982 198.572 302.86C199.82 303.182 201.118 303.46 202.45 303.816C202.592 303.864 202.74 303.884 202.89 303.874C203.038 303.862 203.184 303.822 203.316 303.754C203.45 303.684 203.568 303.59 203.662 303.476C203.758 303.36 203.83 303.228 203.872 303.084C203.914 302.942 203.928 302.79 203.91 302.642C203.894 302.494 203.846 302.35 203.774 302.22C203.7 302.09 203.6 301.978 203.482 301.886C203.362 301.796 203.226 301.73 203.082 301.694L203.092 301.682Z" fill="#191919"/>
<path fill-rule="evenodd" clip-rule="evenodd" d="M173.37 265.328C171.255 263.176 169.293 260.88 167.5 258.454C164.7 254.254 159.822 243.776 160.132 235.502C160.125 235.22 160.009 234.954 159.81 234.756C159.61 234.558 159.341 234.446 159.06 234.442C158.779 234.438 158.508 234.542 158.302 234.734C158.097 234.926 157.973 235.19 157.958 235.47C158.233 244.328 161.066 252.916 166.116 260.2C167.594 262.818 169.563 265.128 171.916 267C172.138 267.188 172.426 267.28 172.716 267.258C173.006 267.236 173.276 267.1 173.467 266.88C173.659 266.66 173.755 266.374 173.737 266.084C173.719 265.794 173.587 265.522 173.37 265.328Z" fill="#191919"/>
<path fill-rule="evenodd" clip-rule="evenodd" d="M182.28 259.302C181.742 258.532 181.28 257.702 180.742 256.902C179.504 255.048 178.126 253.206 176.956 251.19C173.906 245.938 168.822 234.468 168.458 225.43C168.441 225.142 168.311 224.872 168.096 224.682C167.88 224.49 167.598 224.392 167.31 224.408C167.022 224.424 166.753 224.556 166.561 224.77C166.37 224.986 166.271 225.268 166.288 225.556C167.111 233.852 169.554 241.906 173.478 249.262C178.324 258.212 178.36 257.812 180.494 260.62C180.669 260.856 180.93 261.014 181.222 261.058C181.513 261.102 181.809 261.028 182.046 260.854C182.283 260.68 182.441 260.418 182.484 260.126C182.528 259.836 182.455 259.538 182.28 259.302Z" fill="#191919"/>
<path fill-rule="evenodd" clip-rule="evenodd" d="M180.124 228.334C180.025 228.07 179.827 227.852 179.572 227.732C179.316 227.61 179.023 227.592 178.755 227.684C178.487 227.774 178.265 227.966 178.136 228.218C178.007 228.47 177.981 228.762 178.064 229.032C181.21 237.578 182.32 245.556 189.602 253.388C189.798 253.606 190.074 253.738 190.366 253.754C190.66 253.772 190.946 253.674 191.168 253.48C193.288 251.6 186.036 249.95 180.124 228.334Z" fill="#191919"/>
<path fill-rule="evenodd" clip-rule="evenodd" d="M187.528 234.458C189.512 237.748 191.756 240.872 194.242 243.802C206.74 259.402 206.608 259.228 211.452 264.268C216.57 269.594 221.072 273.25 226.412 280.446C226.59 280.668 226.846 280.81 227.128 280.844C227.41 280.88 227.694 280.802 227.918 280.632C228.144 280.46 228.294 280.206 228.336 279.926C228.378 279.646 228.31 279.36 228.144 279.13C225.488 275.73 217.944 268.408 213.038 262.816C211.368 260.918 209.438 258.44 207.192 255.844C204.392 252.592 203.416 252.444 192.058 236.888C191.084 235.554 190.134 234.364 189.384 233.248C189.22 233.008 188.97 232.842 188.686 232.784C188.402 232.728 188.106 232.784 187.862 232.942C187.62 233.1 187.448 233.348 187.386 233.632C187.324 233.916 187.374 234.212 187.528 234.458Z" fill="#191919"/>
<path fill-rule="evenodd" clip-rule="evenodd" d="M68.964 46.0004C60.734 33.8424 41.078 4.25448 38.614 0.652477C38.451 0.407937 38.1974 0.238217 37.9092 0.180657C37.6208 0.123077 37.3216 0.182357 37.077 0.345477C36.8326 0.508577 36.6628 0.762156 36.6052 1.0504C36.5476 1.33864 36.607 1.63794 36.77 1.88248C39.982 6.76848 46.198 16.2084 46.412 16.5264C45.054 18.5844 39.302 26.4384 38.25 27.8484C34.65 23.2224 31.25 18.5144 28.144 13.7284C28.0746 13.6106 27.9822 13.5082 27.872 13.427C27.762 13.3458 27.6368 13.2876 27.5038 13.256C27.3708 13.2244 27.2328 13.22 27.098 13.243C26.9632 13.266 26.8344 13.316 26.7194 13.3898C26.6044 13.4638 26.5056 13.5602 26.4286 13.6732C26.3518 13.7862 26.2986 13.9138 26.272 14.0478C26.2456 14.182 26.2464 14.3202 26.2746 14.4538C26.3028 14.5876 26.3578 14.7144 26.436 14.8264C29.636 19.8264 33.216 24.7184 36.972 29.5484C27.612 41.9724 30.14 37.5704 25.786 43.9764C21.3346 39.1194 17.1588 34.0166 13.278 28.6924C13.1242 28.4718 12.889 28.3212 12.6242 28.274C12.3594 28.2268 12.0868 28.2866 11.866 28.4404C11.6454 28.5942 11.4948 28.8294 11.4476 29.0942C11.4004 29.359 11.4602 29.6318 11.614 29.8524C15.5318 35.4602 19.8668 40.7646 24.582 45.7204C21.214 50.4444 21.69 48.7504 16.67 55.8744C12 51.4444 7.172 46.7384 2.40005 42.1164C2.29687 42.0158 2.17475 41.9366 2.04073 41.8836C1.90673 41.8306 1.76351 41.8046 1.61939 41.8074C1.47529 41.8102 1.33317 41.8416 1.20129 41.8996C1.06941 41.9578 0.950394 42.0416 0.851174 42.1462C0.751934 42.2506 0.674454 42.3738 0.623254 42.5086C0.572034 42.6434 0.548094 42.7868 0.552834 42.931C0.557554 43.075 0.590874 43.2166 0.650814 43.3478C0.710774 43.4788 0.796174 43.5966 0.902054 43.6944C42.506 82.4424 41.248 81.9324 42.708 82.4424C43.4206 82.6876 44.1928 82.6988 44.9122 82.4748C45.6316 82.2506 46.2608 81.8028 46.708 81.1964C62.4 59.9824 54.628 70.8104 68.868 50.7444C69.3686 50.059 69.6464 49.2362 69.6636 48.3876C69.6808 47.539 69.4366 46.7056 68.964 46.0004ZM47.644 18.3564C51.888 24.6464 58.694 34.5564 58.71 34.5884C57.136 36.7484 54.608 40.0484 51.652 43.7664C47.204 38.1664 47.576 39.6284 39.53 29.4784C42.89 25.0004 45.868 21.0004 47.644 18.3564ZM38.244 31.1864C48.434 44.1384 48.83 44.2184 50.194 45.5864C41.616 56.2564 42.87 53.8784 39.688 58.4284C34.508 52.4164 35.798 54.7864 27.316 45.6524C31 41.5104 28.216 44.6004 38.252 31.1864H38.244ZM18.104 57.2324C22.988 51.5864 23.42 50.2184 25.96 47.2144C35.77 57.7964 33.456 55.7364 38.36 60.3004C35.972 63.5244 33.396 65.7004 31.126 69.3664C27.33 65.8664 18.2 57.3264 18.104 57.2324ZM44.932 79.9004C44.8198 80.0598 44.6752 80.1934 44.5074 80.2924C44.3398 80.3916 44.153 80.454 43.9594 80.4756C43.7658 80.4972 43.5698 80.4774 43.3844 80.4176C43.199 80.3576 43.0286 80.2592 42.884 80.1284C40.768 78.1864 37.106 74.8604 32.524 70.6504C32.724 70.5024 35.204 67.6504 35.564 67.2124C36.964 65.5064 38.134 63.6264 39.816 61.6704C42.536 64.2924 44.186 66.4964 46.566 69.1044C47.708 70.3544 48.882 71.5504 50.006 72.7684C47.938 75.6764 46.146 78.2004 44.932 79.9004ZM51.2 71.0904C46.028 64.5624 45.51 65.0584 41.2 60.1524C45.104 55.9784 42.126 59.0124 51.6 46.9884C55.824 51.2764 55.078 51.4284 61.168 57.3644C57.8 61.8984 54.81 66.0344 51.2 71.0904ZM67.108 49.4604C66.048 50.8824 64.38 53.0804 62.424 55.6904C58.956 51.5704 55.698 48.7324 52.91 45.3344C55.732 41.7684 58.25 38.6084 59.91 36.3784C63.362 41.5164 65.798 45.2144 67.142 47.2244C67.3664 47.5556 67.4836 47.9478 67.4774 48.3478C67.4714 48.7478 67.3424 49.1362 67.108 49.4604Z" fill="#191919"/>
<path fill-rule="evenodd" clip-rule="evenodd" d="M125.538 95.4702C123.421 88.9048 120.237 82.7322 116.116 77.2002C113.701 74.6302 111.131 72.2116 108.418 69.9582C109.339 69.0482 110.015 67.9194 110.381 66.6774C110.747 65.4352 110.792 64.1206 110.512 62.8562C108.854 56.3502 98.236 53.2802 91.804 52.5562C90.232 52.3782 84.35 52.2582 80.234 52.1122C77.252 52.0082 74.09 51.7322 70.634 51.5382C69.346 51.4662 68.018 51.4682 66.634 51.3662C66.3554 51.363 66.0856 51.465 65.8788 51.6518C65.6718 51.8384 65.543 52.0964 65.5178 52.3738C65.4926 52.6514 65.5728 52.9284 65.7426 53.1494C65.9124 53.3704 66.1592 53.5192 66.434 53.5662C78.148 55.0102 78.594 53.3082 92.198 55.1662C97.522 55.8962 105.538 57.1662 108.228 61.8682C109.352 63.8322 109.19 66.1202 106.686 68.6182C104.938 67.3178 102.959 66.3614 100.854 65.8002C100.579 65.7196 100.284 65.7484 100.03 65.8806C99.7764 66.0126 99.5834 66.238 99.492 66.5092C99.4004 66.7804 99.4174 67.0764 99.5394 67.3354C99.6612 67.5944 99.8786 67.796 100.146 67.8982C103.241 69.2432 106.151 70.978 108.806 73.0602C110.855 74.793 112.676 76.7774 114.228 78.9662C118.87 84.7162 121.884 88.5302 123.416 95.9662C123.448 96.1056 123.507 96.2374 123.589 96.3538C123.672 96.4704 123.777 96.5696 123.898 96.6456C124.019 96.7216 124.154 96.7732 124.295 96.7972C124.435 96.821 124.58 96.817 124.719 96.7852C124.858 96.7536 124.99 96.6946 125.107 96.612C125.223 96.5292 125.322 96.4244 125.398 96.3034C125.474 96.1824 125.526 96.0476 125.55 95.9068C125.574 95.7658 125.57 95.6216 125.538 95.4822V95.4702Z" fill="#191919"/>
<path fill-rule="evenodd" clip-rule="evenodd" d="M102.768 83.329C105.268 85.0184 107.646 86.8824 109.884 88.907C114.53 93.8294 118.219 99.574 120.762 105.847C121.154 107.192 121.45 108.562 121.648 109.949C121.674 110.089 121.728 110.223 121.806 110.342C121.884 110.462 121.985 110.565 122.102 110.646C122.22 110.726 122.353 110.783 122.492 110.812C122.632 110.842 122.776 110.843 122.916 110.817C123.056 110.791 123.19 110.737 123.31 110.659C123.429 110.581 123.532 110.48 123.613 110.363C123.693 110.245 123.75 110.112 123.779 109.973C123.809 109.833 123.81 109.689 123.784 109.549C123.373 107.819 122.828 106.124 122.152 104.479C119.998 97.7444 116.116 91.692 110.894 86.925C108.928 84.651 106.543 82.7768 103.868 81.405C103.613 81.259 103.31 81.2206 103.027 81.2978C102.743 81.375 102.502 81.5618 102.356 81.817C102.21 82.072 102.172 82.3746 102.249 82.6582C102.326 82.9418 102.513 83.183 102.768 83.329Z" fill="#191919"/>
<path fill-rule="evenodd" clip-rule="evenodd" d="M95.2282 91.0004C95.9082 91.6484 96.5262 92.3744 97.2122 93.0564C98.7922 94.6304 100.508 96.1624 102.054 97.9064C106.88 103.356 113.44 113.132 115.48 121.478C115.559 121.751 115.742 121.981 115.989 122.121C116.235 122.26 116.527 122.298 116.801 122.226C117.075 122.154 117.31 121.978 117.457 121.736C117.603 121.493 117.649 121.203 117.584 120.926C115.561 114.847 112.817 109.033 109.41 103.606C108.12 101.718 105.878 99.1384 103.41 96.2624C101.458 93.7052 99.209 91.3888 96.7102 89.3624C96.4894 89.1926 96.2126 89.1122 95.9352 89.1372C95.6578 89.1624 95.4 89.2908 95.2132 89.4974C95.0262 89.704 94.924 89.9734 94.9268 90.2518C94.9296 90.5304 95.0372 90.7978 95.2282 91.0004Z" fill="#191919"/>
<path fill-rule="evenodd" clip-rule="evenodd" d="M103.468 120.927C103.613 121.177 103.85 121.36 104.129 121.435C104.408 121.51 104.706 121.471 104.956 121.327C105.081 121.256 105.191 121.162 105.278 121.049C105.366 120.936 105.431 120.806 105.468 120.668C105.505 120.529 105.515 120.385 105.495 120.243C105.476 120.101 105.429 119.964 105.356 119.841C100.052 111.241 98.0862 104.615 89.2242 98.2406C88.9888 98.0664 88.6944 97.9916 88.4046 98.0324C88.1146 98.0732 87.8522 98.2262 87.6742 98.4586C85.9142 100.789 93.1002 100.343 103.468 120.927Z" fill="#191919"/>
<path fill-rule="evenodd" clip-rule="evenodd" d="M95 116.388C92.404 113.556 89.5842 110.937 86.568 108.556C71.498 95.9704 71.778 96.1564 65.65 91.8984C59.6 87.6984 54.432 84.9904 47.782 78.9984C47.6748 78.9042 47.5502 78.832 47.415 78.7858C47.28 78.7396 47.1372 78.7206 46.9946 78.7298C46.8522 78.7388 46.713 78.776 46.5848 78.8388C46.4568 78.9018 46.3422 78.9892 46.248 79.0964C46.1536 79.2036 46.0814 79.3282 46.0354 79.4634C45.9892 79.5984 45.9702 79.7412 45.9792 79.8838C45.9884 80.0262 46.0254 80.1654 46.0884 80.2936C46.1512 80.4216 46.2388 80.5362 46.346 80.6304C49.638 83.4484 58.326 89.0304 64.382 93.6304C66.394 95.1624 68.782 97.2104 71.49 99.3124C75.338 102.292 75.768 101.798 90.078 114.898C91.296 116.014 92.462 116.994 93.42 117.938C93.626 118.148 93.907 118.267 94.2008 118.269C94.4946 118.272 94.7774 118.158 94.987 117.951C95.1964 117.745 95.3156 117.465 95.318 117.171C95.3204 116.877 95.206 116.594 95 116.384V116.388Z" fill="#191919"/>
</svg>
